<?xml version="1.0"?>
<svg xmlns="http://www.w3.org/2000/svg" viewBox="0 0 512 512" width="512" height="512"><g id="Solid"><path d="M144,480A112.053,112.053,0,0,0,247.531,325.213a8,8,0,0,1,.516-7.149l15.884-26.7-27.958,5.578a8,8,0,0,1-7.591-2.582A112,112,0,1,0,144,480ZM64,344a8,8,0,0,1,8-8h40V296a8,8,0,0,1,8-8h48a8,8,0,0,1,8,8v40h40a8,8,0,0,1,8,8v48a8,8,0,0,1-8,8H176v40a8,8,0,0,1-8,8H120a8,8,0,0,1-8-8V400H72a8,8,0,0,1-8-8Zm400,80a31.793,31.793,0,0,0,16-4.305V424a16.019,16.019,0,0,1-16,16H249.774a128.041,128.041,0,0,0,9.308-16Zm0-32a31.793,31.793,0,0,0,16-4.305V392a16.019,16.019,0,0,1-16,16H265.592a127,127,0,0,0,4.142-16Zm-36.687-16L480,323.313V360a16.019,16.019,0,0,1-16,16ZM120,384H80V352h40a8,8,0,0,0,8-8V304h32v40a8,8,0,0,0,8,8h40v32H168a8,8,0,0,0-8,8v40H128V392A8,8,0,0,0,120,384ZM480,80v56H128V80a16.019,16.019,0,0,1,16-16h16v8a24,24,0,0,0,48,0V64h32v8a24,24,0,0,0,48,0V64h32v8a24,24,0,0,0,48,0V64h32v8a24,24,0,0,0,48,0V64h16A16.019,16.019,0,0,1,480,80ZM176,72V40a8,8,0,0,1,16,0V72a8,8,0,0,1-16,0Zm160,0V40a8,8,0,0,1,16,0V72a8,8,0,0,1-16,0ZM468.687,312,416,364.687V328a16.019,16.019,0,0,1,16-16ZM256,72V40a8,8,0,0,1,16,0V72a8,8,0,0,1-16,0Zm160,0V40a8,8,0,0,1,16,0V72a8,8,0,0,1-16,0ZM128,241a128.081,128.081,0,0,1,109.289,39.367l41.146-8.21a8,8,0,0,1,8.44,11.935l-23.068,38.778A127.283,127.283,0,0,1,272,368c0,2.687-.093,5.353-.257,8H400V328a32.036,32.036,0,0,1,32-32h48V152H128Zm296-57h16v16H424Zm0,64h16v16H424Zm-64-64h16v16H360Zm0,64h16v16H360Zm0,64h16v16H360ZM296,184h16v16H296Zm0,64h16v16H296Zm0,64h16v16H296ZM232,184h16v16H232Zm0,64h16v16H232Zm-64-64h16v16H168Z"/></g></svg>
