<svg height="496pt" viewBox="-24 0 496 496.008" width="496pt" xmlns="http://www.w3.org/2000/svg"><path d="m416.003906 80.007812c-17.648437 0-32 14.351563-32 32v101.230469l-16.65625 21.195313c-2.511718-10.554688-12.03125-18.425782-23.34375-18.425782h-1.046875c-6.632812 0-13.023437 2.785157-17.546875 7.625l-98.636718 105.695313c-1.042969 1.113281-1.867188 2.367187-2.761719 3.574219-.894531-1.207032-1.71875-2.460938-2.757813-3.574219l-98.65625-105.695313c-4.523437-4.839843-10.914062-7.625-17.546875-7.625h-1.046875c-11.3125 0-20.832031 7.871094-23.34375 18.433594l-16.65625-21.203125v-101.230469c0-17.648437-14.351562-32-32-32-17.648437 0-31.99999975 14.351563-31.99999975 32v136c0 1.335938.33593775 2.65625.97656275 3.832032l48 88c.367187.671875.832031 1.289062 1.367187 1.832031l62.625 62.625c4.535156 4.527344 7.03125 10.550781 7.03125 16.96875v66.742187c0 4.425782 3.574219 8 8 8h192c4.425782 0 8-3.574218 8-8v-66.742187c0-6.417969 2.496094-12.449219 7.03125-16.976563l62.625-62.625c.535156-.535156 1-1.160156 1.367188-1.832031l48-88c.640625-1.167969.976562-2.488281.976562-3.824219v-136c0-17.648437-14.351562-32-32-32zm-291.71875 312.96875-61.816406-61.816406-46.464844-85.191406v-133.960938c0-8.824218 7.175782-16 16-16 8.824219 0 16 7.175782 16 16v104c0 1.792969.601563 3.527344 1.710938 4.945313l88 112 12.578125-9.890625-54.289063-69.09375v-13.960938c0-4.40625 3.585938-8 8-8h1.046875c2.210938 0 4.34375.929688 5.839844 2.535157l98.65625 105.703125c4.167969 4.457031 6.457031 10.273437 6.457031 16.371094v123.390624h-80v-58.742187c0-10.691406-4.167968-20.738281-11.71875-28.289063zm307.71875-147.007812-46.472656 85.191406-61.816406 61.816406c-7.542969 7.550782-11.710938 17.597657-11.710938 28.289063v58.742187h-80v-123.390624c0-6.097657 2.289063-11.914063 6.464844-16.371094l98.648438-105.703125c1.496093-1.605469 3.628906-2.535157 5.839843-2.535157h1.046875c4.417969 0 8 3.59375 8 8v13.960938l-54.289062 69.09375 12.578125 9.890625 88-112c1.109375-1.417969 1.710937-3.152344 1.710937-4.945313v-104c0-8.824218 7.175782-16 16-16 8.824219 0 16 7.175782 16 16zm0 0"/><path d="m144.003906 128.128906c.015625 32.671875 5.25 64.949219 15.59375 95.941406l6.285156 18.890626c2.617188 7.800781 9.898438 13.046874 18.121094 13.046874s15.503906-5.246093 18.121094-13.054687l19.648438-58.945313h4.46875l19.648437 58.953126c2.609375 7.800781 9.890625 13.046874 18.113281 13.046874s15.503906-5.246093 18.121094-13.0625l6.285156-18.875c10.335938-30.992187 15.578125-63.269531 15.59375-95.949218 14.609375-13.210938 24-33.441406 24-56.121094 0-39.695312-28.710937-72-64-72-14.769531 0-28.695312 5.550781-40 15.792969-11.304687-10.234375-25.230468-15.7851565-40-15.7851565-35.289062 0-64 32.3046875-64 71.9999995 0 22.679688 9.390625 42.914063 24 56.121094zm40-112.121094c12.792969 0 24.832032 5.839844 33.921875 16.457032 3.046875 3.550781 9.109375 3.550781 12.160157 0 9.085937-10.617188 21.125-16.457032 33.917968-16.457032 26.472656 0 48 25.121094 48 56 0 30.878907-21.527344 56-48 56v16c8.40625 0 16.425782-1.878906 23.785156-5.207031-1.015624 27.304688-5.890624 54.238281-14.554687 80.214844l-6.285156 18.863281c-.855469 2.546875-5.035157 2.535156-5.890625.007813l-21.46875-64.40625c-1.089844-3.273438-4.136719-5.472657-7.585938-5.472657h-16c-3.449218 0-6.496094 2.199219-7.582031 5.472657l-21.472656 64.398437c-.855469 2.546875-5.035157 2.535156-5.890625.007813l-6.285156-18.878907c-8.65625-25.976562-13.53125-52.910156-14.554688-80.214843 7.359375 3.335937 15.378906 5.214843 23.785156 5.214843v-16c-26.472656 0-48-25.121093-48-56 0-30.878906 21.527344-56 48-56zm0 0"/></svg>