<?xml version="1.0"?>
<svg xmlns="http://www.w3.org/2000/svg" viewBox="0 0 512 512" width="512" height="512"><g id="outline"><path d="M32,496H480a8,8,0,0,0,7.92-9.131l-3.554-24.88a68.013,68.013,0,0,0-36.906-51.2L332.739,353.425l-23.082-23.082A7.991,7.991,0,0,0,304,328v-8c0-.065-.008-.128-.01-.192a78.849,78.849,0,0,0,25.265-33.4A205.509,205.509,0,0,0,341.789,240h5.267a28.785,28.785,0,0,0,25.888-16A29.092,29.092,0,0,0,376,211.056V196.944a28.831,28.831,0,0,0-8.06-20.008A7.826,7.826,0,0,0,368,176V126.325a61.49,61.49,0,0,0-18.129-43.767L333.443,66.129A61.488,61.488,0,0,0,289.676,48H236.845a61.763,61.763,0,0,0-49.88,25.246l-6.959,2.319A52.66,52.66,0,0,0,144,125.521V176a8.04,8.04,0,0,0,.059.936A28.834,28.834,0,0,0,136,196.944v14.112A29.092,29.092,0,0,0,139.056,224a28.785,28.785,0,0,0,25.888,16h5.268a205.454,205.454,0,0,0,12.533,46.4,78.849,78.849,0,0,0,25.265,33.4c0,.064-.01.127-.01.192v8a7.992,7.992,0,0,0-5.657,2.34l-23.082,23.082L64.54,410.786a68.013,68.013,0,0,0-36.906,51.2L24.08,486.869A8,8,0,0,0,32,496Zm192.938-16H216V408a8,8,0,0,0-.145-1.494l4.756-3.4,11.15,22.3Zm16.124,0,6-48h17.876l6,48Zm25.994-64H244.944L233.792,393.7,256,377.832,278.208,393.7Zm21.014-78.995L256,358.385l-32.07-21.38a7.938,7.938,0,0,0,.07-1v-6.715a79.6,79.6,0,0,0,64,0V336A7.938,7.938,0,0,0,288.07,337.005ZM296,408v72h-8.938l-6.823-54.589,11.15-22.3,4.756,3.4A8,8,0,0,0,296,408Zm36.673-36.719L440.3,425.1a52.014,52.014,0,0,1,28.222,39.156L470.776,480H440V456a8,8,0,0,0-16,0v24H312V416h0a8,8,0,0,0,7.589-5.47Zm-13.826-9.12-11.011,33.033-37.754-26.967,32.9-21.933ZM360,196.944v14.112a13.024,13.024,0,0,1-1.366,5.789A12.876,12.876,0,0,1,347.056,224h-3.543q.48-7.049.487-14.163V184h3.056A12.959,12.959,0,0,1,360,196.944ZM164.944,224a12.876,12.876,0,0,1-11.578-7.155A13.024,13.024,0,0,1,152,211.056V196.944A12.959,12.959,0,0,1,164.944,184H168v25.837q0,7.113.487,14.163Zm4.163-76.062A8.015,8.015,0,0,0,168,152v16h-3.056a28.987,28.987,0,0,0-4.944.431v-42.91a36.657,36.657,0,0,1,25.065-34.777l9.464-3.155a7.989,7.989,0,0,0,4.127-3.151A45.8,45.8,0,0,1,236.845,64h52.831a45.594,45.594,0,0,1,32.453,13.442l16.428,16.429A45.6,45.6,0,0,1,352,126.325v42.106a28.987,28.987,0,0,0-4.944-.431H344V144a8,8,0,0,0-8-8H285.076a118.581,118.581,0,0,1-74.9-26.736l-5.115-4.185a8,8,0,0,0-11.959,2.129ZM197.6,280.462A189.337,189.337,0,0,1,184,209.837V154.182l18.17-30.835A134.648,134.648,0,0,0,285.076,152H328v57.837a189.337,189.337,0,0,1-13.6,70.625,62.9,62.9,0,0,1-116.8,0Zm11.419,65.832,32.9,21.933-37.754,26.967-11.011-33.033ZM43.474,464.253A52.014,52.014,0,0,1,71.7,425.1l107.631-53.815L192.41,410.53A8,8,0,0,0,200,416h0v64H88V456a8,8,0,0,0-16,0v24H41.224Z"/><path d="M277.47,175.589l24,8a8,8,0,1,0,5.06-15.178l-24-8a8,8,0,1,0-5.06,15.178Z"/><circle cx="290" cy="202" r="10"/><path d="M239.59,165.47a8,8,0,0,0-10.12-5.059l-24,8a8,8,0,1,0,5.06,15.178l24-8A8,8,0,0,0,239.59,165.47Z"/><circle cx="222" cy="202" r="10"/><path d="M276.422,256.845A68.118,68.118,0,0,1,246.111,264H240a8,8,0,0,0,0,16h6.111a84.209,84.209,0,0,0,37.467-8.845,8,8,0,1,0-7.156-14.31Z"/><path d="M240,240a8,8,0,0,0,8,8h16a8,8,0,0,0,0-16h-8V216a8,8,0,0,0-16,0Z"/></g></svg>
