<svg height="480pt" viewBox="0 -56 480 480" width="480pt" xmlns="http://www.w3.org/2000/svg"><path d="m232 352h16v16h-16zm0 0"/><path d="m232 0h16v16h-16zm0 0"/><path d="m421.65625 26.34375c-29.390625-29.390625-93.921875-29.390625-123.3125 0-14.636719 15.710938-21.308594 37.242188-18.117188 58.476562 2.046876 21.347657 11.253907 41.378907 26.117188 56.835938 9.65625 9.03125 15.773438 21.207031 17.253906 34.34375h-75.597656v-144h-16v144h-75.597656c1.480468-13.136719 7.597656-25.3125 17.253906-34.34375 14.863281-15.460938 24.066406-35.488281 26.117188-56.835938 3.191406-21.234374-3.480469-42.765624-18.117188-58.476562-29.390625-29.398438-93.929688-29.390625-122.835938-.4375-2.40625 2.039062-58.820312 51.226562-58.820312 158.09375 0 106.367188 48.179688 155.507812 50.359375 157.671875 14.726563 14.71875 40.1875 22.078125 65.640625 22.078125 25.46875 0 50.929688-7.367188 65.65625-22.09375 13.921875-13.921875 20.53125-36.671875 18.125-62.398438-1.636719-22.660156-10.835938-44.109374-26.125-60.914062-7.519531-7.222656-12.984375-16.3125-15.835938-26.34375h74.179688v144h16v-144h74.179688c-2.851563 10.03125-8.316407 19.121094-15.835938 26.34375-15.289062 16.804688-24.488281 38.257812-26.125 60.914062-2.40625 25.726563 4.203125 48.476563 18.125 62.398438 14.726562 14.726562 40.1875 22.09375 65.65625 22.09375 25.453125 0 50.914062-7.359375 65.640625-22.078125 2.179687-2.164063 50.359375-51.304687 50.359375-157.671875 0-106.867188-56.414062-156.054688-58.34375-157.65625zm-251.3125 304c-23.359375 23.359375-85.328125 23.359375-108.6875 0l-.023438-.023438c-.453124-.453124-45.632812-46.414062-45.632812-146.320312 0-99.054688 52.664062-145.460938 53.65625-146.34375 13.914062-12.089844 31.925781-18.402344 50.34375-17.640625 18.417969-.761719 36.429688 5.550781 50.34375 17.640625 23.453125 23.453125 14.804688 69.882812-8 92.6875-29.703125 29.703125-29.703125 69.609375 0 99.3125 23.226562 23.226562 31.429688 77.257812 8 100.6875zm248.007812-.007812-.007812.007812c-23.359375 23.359375-85.328125 23.359375-108.6875 0-23.429688-23.429688-15.226562-77.460938 8-100.6875 29.703125-29.703125 29.703125-69.609375 0-99.3125-22.804688-22.804688-31.453125-69.234375-8-92.6875 13.851562-12.054688 31.792969-18.351562 50.140625-17.59375 18.679687-.730469 36.929687 5.714844 51.007813 18.015625.53125.460937 53.195312 46.867187 53.195312 145.921875 0 99.367188-45.195312 145.875-45.648438 146.335938zm0 0"/></svg>